# xmcd
#
# Track frame offsets: 
#        150
#        14281
#        32603
#        47299
#        59937
#        73035
#        92958
#        106761
#
# Disc length: 1584 seconds
#
# Revision: 0
# Processed by: cddbd v1.5.2PL0 Copyright (c) Steve Scherf et al.
# Submitted via: ExactAudioCopy v1.0b3
#
DISCID=65062e08
DTITLE=Dexter Allen - Bluezin For Life
DYEAR=2011
DGENRE=Blues
TTITLE0=Tired
TTITLE1=Night Time Loving
TTITLE2=Take Me To The River
TTITLE3=Who
TTITLE4=Ain't That A Shame
TTITLE5=Ready For The World To Change
TTITLE6=Why You Treat Me Bad
TTITLE7=Born Under A Bad Sign
EXTD=
EXTT0=
EXTT1=
EXTT2=
EXTT3=
EXTT4=
EXTT5=
EXTT6=
EXTT7=
PLAYORDER=
